# xmcd
#
# Track frame offsets:
#	150
#	16509
#	32307
#	54608
#	68895
#	85593
#	102149
#	135380
#	148728
#	166599
#	186795
#	210548
#
# Disc length: 3008 seconds
#
# Revision: 0
# Processed by: cddbd v1.5.2PL0 Copyright (c) Steve Scherf et al.
# Submitted via: dBpowerAMP V4.0
#
DISCID=8c0bbe0c
DTITLE=Rod Clements - Live Ghosts
DYEAR=1900
DGENRE=Blues
TTITLE0=Stamping Ground
TTITLE1=Why Can't I Be Satisfied
TTITLE2=Blue Interior
TTITLE3=Charity Main
TTITLE4=Roads of East Northumberland
TTITLE5=When Jones Gets Back to Town
TTITLE6=Candlelight
TTITLE7=Whole Lifestyle Thing
TTITLE8=Remember Tomorrow
TTITLE9=Can't Do Right For Doing Wrong
TTITLE10=Lost Highway
TTITLE11=Meet Me On The Corner
EXTD=
EXTT0=
EXTT1=
EXTT2=
EXTT3=
EXTT4=
EXTT5=
EXTT6=
EXTT7=
EXTT8=
EXTT9=
EXTT10=
EXTT11=
PLAYORDER=
